        <svg
          class="status-bar__column__wifi"
          xmlns="http://www.w3.org/2000/svg"
          viewBox="0 0 32 32"
          fill="none"
        >
          <g fill="currentColor">
            <path
              d="M4.5 12.2a1.35 1.35 0 0 1 0-1.9C7.35 7.5 11.43 6 16 6s8.65 1.5 11.5 4.3a1.35 1.35 0 1 1-1.9 1.93C23.25 9.93 19.8 8.7 16 8.7s-7.25 1.23-9.6 3.53a1.35 1.35 0 0 1-1.9-.03Z"
              fill="currentColor"
            />
            <path
              d="M7.85 15.6a1.35 1.35 0 0 1 .05-1.9c2.07-1.97 4.94-3.1 8.1-3.1s6.03 1.13 8.1 3.1a1.35 1.35 0 1 1-1.86 1.96c-1.57-1.5-3.8-2.36-6.24-2.36s-4.67.86-6.24 2.36a1.35 1.35 0 0 1-1.91-.06Z"
              fill="currentColor"
            />
            <path
              d="M11.1 18.95a1.35 1.35 0 0 1 .08-1.9A6.91 6.91 0 0 1 16 15.1c1.9 0 3.65.74 4.82 1.95a1.35 1.35 0 0 1-1.94 1.87A4.22 4.22 0 0 0 16 17.8c-1.18 0-2.27.44-3.02 1.12a1.35 1.35 0 0 1-1.88.03Z"
              fill="currentColor"
            />
            <circle cx="16" cy="22.4" r="2.4" fill="currentColor" />
          </g>
        </svg>
